<?xml version="1.0" encoding="utf-8"?>
<!-- Generator: Adobe Illustrator 24.1.2, SVG Export Plug-In . SVG Version: 6.00 Build 0)  -->
<svg version="1.1" id="图层_1" xmlns="http://www.w3.org/2000/svg" xmlns:xlink="http://www.w3.org/1999/xlink" x="0px" y="0px"
	 viewBox="0 0 200 200" style="enable-background:new 0 0 200 200;" xml:space="preserve">
<style type="text/css">
	.st0{fill:#FFFFFF;}
</style>
<path class="st0" d="M47.1,71.8C32.4,83,22.5,96.7,22.5,111.9c0,40.2,23.3,48.6,24,48.6c1.9,0.6,2.6,2.6,1.9,3.9
	c-0.6,1.9-1.9,2.6-3.2,2.6l0,0h-1.3c-0.6-0.6-27.9-11-27.9-55.1c0-18.6,12-34.4,29-46.6"/>
<path class="st0" d="M117.4,38.1c4.2-0.5,8.3-0.7,12-0.7c42.1,0,66.1,32.4,67.4,33.7c0.6,1.3,0.6,3.2,0,4.5l-4.5,3.9l3.9,3.9
	c1.3,1.3,1.3,2.6,0.6,3.9c-0.6,1.3-22.7,33.7-48,33.7h-22.7c-1.9,0,1.1-1.3,1.1-3.2s-3-3.2-1.1-3.2h22.7c18.8,0,36.3-22,40.8-28.5
	l-4.5-4.5c-1.3-1.3-1.3-3.2,0-4.5l4.5-4.5c-5.8-7.1-27.9-29.2-60.3-29.2c-2.5,0-5,0.2-7.6,0.4"/>
<path class="st0" d="M111.9,140.5c-1.3,0-2.6-0.6-3.2-1.9s0-2.6,0.6-3.2c5.2-5.2-8.4-23.3-19.4-34.4c-1.3-1.3-1.3-3.2,0-4.5
	s3.2-1.3,4.5,0c4.5,4.5,22,22.7,22,35.7c7.8-6.5,10.4-25.9,11-33.7c0-1.9,1.3-3.2,3.2-3.2c1.9,0,3.2,1.9,3.2,3.2
	C134.6,102.9,131.4,140.5,111.9,140.5L111.9,140.5z"/>
<path class="st0" d="M146.3,102.2c-0.6,0-1.9-0.6-2.6-1.3c0,0-7.1-7.8-7.1-24.6c0-18.8,8.4-19.4,9.7-19.4c1.9,0,3.2,1.3,3.2,3.2
	s-1.3,3.2-2.6,3.2c0,0-3.9,1.9-3.9,13c0,14.3,5.8,20.1,5.8,20.7c1.3,1.3,1.3,3.2,0,4.5C147.6,102.2,146.9,102.2,146.3,102.2z"/>
<path class="st0" d="M43.1,51.7c-5.8,9.4-30.3,27-33.6,60.2c-2.5,25.8,8.4,39.5,22,52.5c6.5,6.5,15.6,9.7,24.6,12.3
	c4.5,1.3,9.1,2.6,13,4.5c-0.6-1.9-1.3-4.5-1.3-7.8c0-5.8,2.6-11,7.1-15.6c5.8-5.2,9.1-16.9,11-25.3c-10.4,9.1-25.3,20.7-31.1,20.7
	c-9.1,0-19.4-14.3-19.4-25.9c0-12.3,13.6-32.4,29.2-32.4c9.1,0,20.1,5.2,28.5,9.1c3.9,1.9,9.1,3.9,10.4,3.9c1.9,0,2,2.5,2,4.4
	s0,2.1-2,2.1c-2.6,0-6.5-1.9-13-4.5c-7.8-3.9-18.1-8.4-25.9-8.4c-11.7,0-22.7,17.5-22.7,25.9c0,9.1,8.4,19.4,13,19.4
	c3.9,0,20.1-13,33.7-25.3c1.3-0.6,2.6-1.3,3.9-0.6s1.9,1.9,1.9,3.2s-2.6,27.2-14.3,38.2s-1.3,22.7,0,24c1.3,1.3,1.3,3.2,0,4.5
	c-0.6,1.3-1.9,1.9-2.6,1.9h0c-0.6,0-1.3,0-1.9-0.6c-6.5-4.5-14.3-6.5-21.4-9.1C44.5,180,34.8,177.4,27,169c-12.3-12.3-26.8-28-24-57
	c3.9-39.9,31-57.7,34-62.5c4.9-7.8-1.8,3.2,2.2-1c1.3-1.3,2.5,1.3,3.7,2.6"/>
<path class="st0" d="M158.6,76.3c0,3.6,2.9,6.5,6.5,6.5c3.6,0,6.5-2.9,6.5-6.5c0,0,0,0,0,0c0-3.6-2.9-6.5-6.5-6.5
	C161.5,69.8,158.6,72.7,158.6,76.3C158.6,76.3,158.6,76.3,158.6,76.3z"/>
<path class="st0" d="M127.2,8.6l-38.1,0l0,0c-1.9,0.1-3.8,0.4-6,1.1L49.6,20.6C38.5,24.2,32.7,36,36.3,47.1h0l6.9,29.3
	c1.4,6.1,7.4,10.1,13.4,9l0.6-0.1c4.7-0.8,8.3-4.5,9.1-9.1l4.3,10.2c2.4,5.8,9,8.7,14.8,6.6l0.5-0.2c5.9-2.2,8.8-8.7,6.7-14.6
	l-0.4-1.1l4.9,7.7l0,0c3.4,5.3,10.3,7.1,15.7,3.9l0.4-0.3c5.4-3.2,7.1-10.1,4.1-15.6l-4.4-8l0.8,0.9c4.2,4.7,11.4,5.2,16.1,1.1
	l0.4-0.3c4.7-4.1,5.2-11.2,1.3-16.1l-13.5-16.8l7.1,0.4c6.7,0.4,12.6-4.7,13-11.4C138.5,15.7,133.8,9.7,127.2,8.6z M125.8,61.3
	l-0.4,0.3c-2,1.7-5.1,1.5-6.8-0.6l-14.9-16.5c-1.6-1.7-4.2-1.8-5.9-0.3c-1.4,1.3-1.8,3.4-0.9,5.1l14.6,26.4c1.3,2.4,0.6,5.4-1.7,6.7
	l-0.4,0.3c-2.2,1.3-5.2,0.6-6.7-1.8L86.5,55.6l0,0c-1.3-2-3.9-2.5-5.8-1.3c-1.6,1-2.3,3.1-1.7,4.9l7.3,21c0.9,2.5-0.3,5.3-2.8,6.2
	l-0.5,0.2c-2.5,0.9-5.3-0.4-6.4-2.9L65.7,57.3c-0.9-2.1-3.4-3.1-5.5-2.2c-1.8,0.8-2.8,2.6-2.5,4.5l2.2,13.5c0.5,2.6-1.2,5.1-3.8,5.6
	l-0.6,0.1c-2.6,0.5-5.2-1.3-5.8-4L42.6,45l0,0c-2.2-7.8,1.6-15.4,9.1-17.9l33.6-10.9c6.9-2.3,11.7,1.6,16.7,7.7l24.3,30.4
	C128,56.5,127.7,59.6,125.8,61.3z M131.2,21.9c-0.2,2.9-2.7,5.1-5.7,4.9l-13.4-0.8l-2.4-3c-2.2-3-4.3-5.5-6.3-7.6l22.7,0
	C129.1,16,131.3,18.8,131.2,21.9z"/>
</svg>
